<svg xmlns:xlink="http://www.w3.org/1999/xlink" xmlns="http://www.w3.org/2000/svg" version="1.1" style="max-height: 500px" viewBox="42.312 133.6723716381418 897.408 234.90953545232273" width="897.408" height="234.90953545232273"><style data-font-family="Roboto" class="text-font-style fontImports">@import url('https://fonts.googleapis.com/css2?family=Roboto:wght@400;700&amp;display=block');</style><g style="isolation: isolate" id="items"><g style="mix-blend-mode: normal" id="blend"><g transform="translate(50, 134)" data-item-order="-320101" id="g-root-cp_1_top-1_18gbcc4m9fuo4-fill"/><g transform="translate(38, 158)" data-item-order="-320094" id="g-root-cp_1_Number_m9uat0m9ftvy-fill"><g fill="#4e88e7" stroke="none" id="cp_1_Number_m9uat0m9ftvy-fill"><g><path d="M 22 22L 82 22L 82 82L 22 82ZM 82 10L 112 52L 82 94L 82 10Z"/></g></g><g fill="#4e88e7" stroke="none" id="cp_1_Number_m9uat0m9ftvy-fill"><g><path d="M 10 26C 10 23.7909 11.7909 22 14 22L 22 22L 22 90L 14 90C 11.7909 90 10 88.2091 10 86L 10 26Z"/></g></g></g><g transform="translate(350, 134)" data-item-order="-320077" id="g-root-cp_2_top-2_hu0sokm9fuo9-fill"/><g transform="translate(338, 158)" data-item-order="-320070" id="g-root-cp_2_Number_1_de7ak4m9fvgj-fill"><g fill="#3cc583" stroke="none" id="cp_2_Number_1_de7ak4m9fvgj-fill"><g><path d="M 22 22L 82 22L 82 82L 22 82ZM 82 10L 112 52L 82 94L 82 10Z"/></g></g><g fill="#3cc583" stroke="none" id="cp_2_Number_1_de7ak4m9fvgj-fill"><g><path d="M 10 26C 10 23.7909 11.7909 22 14 22L 22 22L 22 90L 14 90C 11.7909 90 10 88.2091 10 86L 10 26Z"/></g></g></g><g transform="translate(650, 134)" data-item-order="-320053" id="g-root-cp_3_top-3_4j6recm9ft3i-fill"/><g transform="translate(638, 158)" data-item-order="-320046" id="g-root-cp_3_Number_2_3d99wm9ftvs-fill"><g fill="#92bd39" stroke="none" id="cp_3_Number_2_3d99wm9ftvs-fill"><g><path d="M 22 22L 82 22L 82 82L 22 82ZM 82 10L 112 52L 82 94L 82 10Z"/></g></g><g fill="#92bd39" stroke="none" id="cp_3_Number_2_3d99wm9ftvs-fill"><g><path d="M 10 26C 10 23.7909 11.7909 22 14 22L 22 22L 22 90L 14 90C 11.7909 90 10 88.2091 10 86L 10 26Z"/></g></g></g><g transform="translate(50, 248)" data-item-order="-320027" id="g-root-cp_1_bottom-1_1uont4km9fugz-fill"/><g transform="translate(350, 248)" data-item-order="-320017" id="g-root-cp_2_bottom-2_1lt0svom9fv9p-fill"/><g transform="translate(650, 248)" data-item-order="-320007" id="g-root-cp_3_bottom-3_1hdtrucm9fsw7-fill"/><g transform="translate(380, 62)" data-item-order="0" id="g-root-tx__1hdtrucm9fsw9-fill"><g fill="#484848" stroke="none" id="tx__1hdtrucm9fsw9-fill"><g><text font-family="Roboto, sans-serif" font-size="20px" style="font: 20px Roboto, sans-serif; white-space: pre;"><tspan y="34" x="12.55">논스톱 자소서 생성 과정</tspan></text></g></g></g><g transform="translate(68, 188)" data-item-order="0" id="g-root-tx_1_qrj86sm9fswb-fill"><g fill="#ffffff" stroke="none" id="tx_1_qrj86sm9fswb-fill"><g><text font-family="Roboto, sans-serif" font-size="20px" font-weight="bold" style="font: bold 20px Roboto, sans-serif; white-space: pre;"><tspan y="36" x="16.09">1</tspan></text></g></g></g><g transform="translate(152, 179)" data-item-order="0" id="g-root-tx__142d9h0m9fuh6-fill"><g fill="#4e88e7" stroke="none" id="tx__142d9h0m9fuh6-fill"><g><text font-family="Roboto, sans-serif" font-size="20px" font-weight="bold" style="font: bold 20px Roboto, sans-serif; white-space: pre;"><tspan y="34" x="12">경험 생성</tspan></text></g></g></g><g transform="translate(452, 179)" data-item-order="0" id="g-root-tx__mbpq2cm9ftok-fill"><g fill="#3cc583" stroke="none" id="tx__mbpq2cm9ftok-fill"><g><text font-family="Roboto, sans-serif" font-size="20px" font-weight="bold" style="font: bold 20px Roboto, sans-serif; white-space: pre;"><tspan y="36" x="12">경험 매핑</tspan></text></g></g></g><g transform="translate(368, 188)" data-item-order="0" id="g-root-tx_2_dg2ptgm9fuh9-fill"><g fill="#ffffff" stroke="none" id="tx_2_dg2ptgm9fuh9-fill"><g><text font-family="Roboto, sans-serif" font-size="20px" font-weight="bold" style="font: bold 20px Roboto, sans-serif; white-space: pre;"><tspan y="36" x="16.09">2</tspan></text></g></g></g><g transform="translate(668, 188)" data-item-order="0" id="g-root-tx_3_58oj8m9fswf-fill"><g fill="#ffffff" stroke="none" id="tx_3_58oj8m9fswf-fill"><g><text font-family="Roboto, sans-serif" font-size="20px" font-weight="bold" style="font: bold 20px Roboto, sans-serif; white-space: pre;"><tspan y="36" x="16.09">3</tspan></text></g></g></g><g transform="translate(752, 179)" data-item-order="0" id="g-root-tx__9097p0m9fv9i-fill"><g fill="#92bd39" stroke="none" id="tx__9097p0m9fv9i-fill"><g><text font-family="Roboto, sans-serif" font-size="20px" font-weight="bold" style="font: bold 20px Roboto, sans-serif; white-space: pre;"><tspan y="36" x="12">자소서 생성</tspan></text></g></g></g><g transform="translate(98, 260)" data-item-order="0" id="g-root-tx__1qapq9gm9fu9s-fill"><g fill="#3a4455" stroke="none" id="tx__1qapq9gm9fu9s-fill"><g><text font-family="Roboto, sans-serif" font-size="15px" style="font: 15px Roboto, sans-serif; white-space: pre;"><tspan y="31" x="12">기존 자소서에서 경험 추출</tspan><tspan y="49" x="12">                     &amp;</tspan><tspan y="67" x="12">나만의 특별한 경험 기록</tspan></text></g></g></g><g transform="translate(434, 260)" data-item-order="0" id="g-root-tx__1czvoz8m9fsox-fill"><g fill="#374840" stroke="none" id="tx__1czvoz8m9fsox-fill"><g><text font-family="Roboto, sans-serif" font-size="15px" style="font: 15px Roboto, sans-serif; white-space: pre;"><tspan y="28" x="12">문항별 최적의 </tspan><tspan y="46" x="12">  경험을 연결</tspan></text></g></g></g><g transform="translate(704, 260)" data-item-order="0" id="g-root-tx__1448oqcm9fthm-fill"><g fill="#424736" stroke="none" id="tx__1448oqcm9fthm-fill"><g><text font-family="Roboto, sans-serif" font-size="15px" style="font: 15px Roboto, sans-serif; white-space: pre;"><tspan y="28" x="12"> 기업의 Needs에 맞는</tspan><tspan y="46" x="12">가치관을 중심으로 생성</tspan></text></g></g></g><g transform="translate(50, 134)" data-item-order="-320101" id="g-root-cp_1_top-1_18gbcc4m9fuo4-stroke"><g stroke-width="2" stroke="#4e88e7" stroke-miterlimit="4" stroke-linejoin="round" stroke-linecap="round" fill="none" id="cp_1_top-1_18gbcc4m9fuo4-stroke"><g><path d="M 274 28L 274 124M 10 124L 10 28M 274 28L 274 26C 274 17.1634 265.8485 10 255.7931 10L 28.2069 10C 18.1515 10 10 17.1634 10 26L 10 28"/></g></g></g><g transform="translate(38, 158)" data-item-order="-320094" id="g-root-cp_1_Number_m9uat0m9ftvy-stroke"><g stroke-width="2" stroke="#ffffff" stroke-miterlimit="4" stroke-linejoin="round" stroke-linecap="round" fill="none" id="cp_1_Number_m9uat0m9ftvy-stroke"><g><path d="M 22 22L 82 22L 82 10L 112 52L 82 94L 82 82L 22 82"/></g></g><g stroke-width="2" stroke="#ffffff" stroke-miterlimit="4" stroke-linejoin="round" stroke-linecap="round" fill="none" id="cp_1_Number_m9uat0m9ftvy-stroke"><g><path d="M 10 86C 10 83.7909 11.7909 82 14 82L 22 82L 22 90L 14 90C 11.7909 90 10 88.2091 10 86ZM 22 22L 14 22C 11.7909 22 10 23.7909 10 26L 10 86C 10 88.2091 11.7909 90 14 90L 22 90"/></g></g></g><g transform="translate(350, 134)" data-item-order="-320077" id="g-root-cp_2_top-2_hu0sokm9fuo9-stroke"><g stroke-width="2" stroke="#3cc583" stroke-miterlimit="4" stroke-linejoin="round" stroke-linecap="round" fill="none" id="cp_2_top-2_hu0sokm9fuo9-stroke"><g><path d="M 274 28L 274 124M 10 124L 10 28M 274 28L 274 26C 274 17.1634 265.8485 10 255.7931 10L 28.2069 10C 18.1515 10 10 17.1634 10 26L 10 28"/></g></g></g><g transform="translate(338, 158)" data-item-order="-320070" id="g-root-cp_2_Number_1_de7ak4m9fvgj-stroke"><g stroke-width="2" stroke="#ffffff" stroke-miterlimit="4" stroke-linejoin="round" stroke-linecap="round" fill="none" id="cp_2_Number_1_de7ak4m9fvgj-stroke"><g><path d="M 22 22L 82 22L 82 10L 112 52L 82 94L 82 82L 22 82"/></g></g><g stroke-width="2" stroke="#ffffff" stroke-miterlimit="4" stroke-linejoin="round" stroke-linecap="round" fill="none" id="cp_2_Number_1_de7ak4m9fvgj-stroke"><g><path d="M 10 86C 10 83.7909 11.7909 82 14 82L 22 82L 22 90L 14 90C 11.7909 90 10 88.2091 10 86ZM 22 22L 14 22C 11.7909 22 10 23.7909 10 26L 10 86C 10 88.2091 11.7909 90 14 90L 22 90"/></g></g></g><g transform="translate(650, 134)" data-item-order="-320053" id="g-root-cp_3_top-3_4j6recm9ft3i-stroke"><g stroke-width="2" stroke="#92bd39" stroke-miterlimit="4" stroke-linejoin="round" stroke-linecap="round" fill="none" id="cp_3_top-3_4j6recm9ft3i-stroke"><g><path d="M 274 28L 274 124M 10 124L 10 28M 274 28L 274 26C 274 17.1634 265.8485 10 255.7931 10L 28.2069 10C 18.1515 10 10 17.1634 10 26L 10 28"/></g></g></g><g transform="translate(638, 158)" data-item-order="-320046" id="g-root-cp_3_Number_2_3d99wm9ftvs-stroke"><g stroke-width="2" stroke="#ffffff" stroke-miterlimit="4" stroke-linejoin="round" stroke-linecap="round" fill="none" id="cp_3_Number_2_3d99wm9ftvs-stroke"><g><path d="M 22 22L 82 22L 82 10L 112 52L 82 94L 82 82L 22 82"/></g></g><g stroke-width="2" stroke="#ffffff" stroke-miterlimit="4" stroke-linejoin="round" stroke-linecap="round" fill="none" id="cp_3_Number_2_3d99wm9ftvs-stroke"><g><path d="M 10 86C 10 83.7909 11.7909 82 14 82L 22 82L 22 90L 14 90C 11.7909 90 10 88.2091 10 86ZM 22 22L 14 22C 11.7909 22 10 23.7909 10 26L 10 86C 10 88.2091 11.7909 90 14 90L 22 90"/></g></g></g><g transform="translate(50, 248)" data-item-order="-320027" id="g-root-cp_1_bottom-1_1uont4km9fugz-stroke"><g stroke-width="2" stroke="#4e88e7" stroke-miterlimit="4" stroke-linejoin="round" stroke-linecap="round" fill="none" id="cp_1_bottom-1_1uont4km9fugz-stroke"><g><path d="M 274 10L 274 94M 10 94L 10 10M 274 94L 274 96C 274 104.8366 265.8485 112 255.7931 112L 28.2069 112C 18.1515 112 10 104.8366 10 96L 10 94"/></g></g></g><g transform="translate(350, 248)" data-item-order="-320017" id="g-root-cp_2_bottom-2_1lt0svom9fv9p-stroke"><g stroke-width="2" stroke="#3cc583" stroke-miterlimit="4" stroke-linejoin="round" stroke-linecap="round" fill="none" id="cp_2_bottom-2_1lt0svom9fv9p-stroke"><g><path d="M 274 10L 274 94M 10 94L 10 10M 274 94L 274 96C 274 104.8366 265.8485 112 255.7931 112L 28.2069 112C 18.1515 112 10 104.8366 10 96L 10 94"/></g></g></g><g transform="translate(650, 248)" data-item-order="-320007" id="g-root-cp_3_bottom-3_1hdtrucm9fsw7-stroke"><g stroke-width="2" stroke="#92bd39" stroke-miterlimit="4" stroke-linejoin="round" stroke-linecap="round" fill="none" id="cp_3_bottom-3_1hdtrucm9fsw7-stroke"><g><path d="M 274 10L 274 94M 10 94L 10 10M 274 94L 274 96C 274 104.8366 265.8485 112 255.7931 112L 28.2069 112C 18.1515 112 10 104.8366 10 96L 10 94"/></g></g></g><g transform="translate(380, 62)" data-item-order="0" id="g-root-tx__1hdtrucm9fsw9-stroke"/><g transform="translate(68, 188)" data-item-order="0" id="g-root-tx_1_qrj86sm9fswb-stroke"/><g transform="translate(152, 179)" data-item-order="0" id="g-root-tx__142d9h0m9fuh6-stroke"/><g transform="translate(452, 179)" data-item-order="0" id="g-root-tx__mbpq2cm9ftok-stroke"/><g transform="translate(368, 188)" data-item-order="0" id="g-root-tx_2_dg2ptgm9fuh9-stroke"/><g transform="translate(668, 188)" data-item-order="0" id="g-root-tx_3_58oj8m9fswf-stroke"/><g transform="translate(752, 179)" data-item-order="0" id="g-root-tx__9097p0m9fv9i-stroke"/><g transform="translate(98, 260)" data-item-order="0" id="g-root-tx__1qapq9gm9fu9s-stroke"/><g transform="translate(434, 260)" data-item-order="0" id="g-root-tx__1czvoz8m9fsox-stroke"/><g transform="translate(704, 260)" data-item-order="0" id="g-root-tx__1448oqcm9fthm-stroke"/></g></g></svg>